<svg width="62" height="22" viewBox="0 0 62 22" fill="none" xmlns="http://www.w3.org/2000/svg">
<path d="M59.6121 8.43944C58.6541 9.39743 57.4756 9.87642 56.0767 9.87642C54.6777 9.87642 53.4916 9.39743 52.5184 8.43944C51.5604 7.48145 51.0814 6.31057 51.0814 4.92681C51.0814 3.54304 51.5604 2.37977 52.5184 1.43699C53.4916 0.478995 54.6777 0 56.0767 0C57.4756 0 58.6541 0.478995 59.6121 1.43699C60.5853 2.37977 61.0719 3.54304 61.0719 4.92681C61.0719 6.31057 60.5853 7.48145 59.6121 8.43944ZM53.2939 2.12126C52.564 2.86637 52.1991 3.80155 52.1991 4.92681C52.1991 6.05207 52.564 6.99485 53.2939 7.75516C54.039 8.50026 54.9666 8.87282 56.0767 8.87282C57.1867 8.87282 58.1067 8.50026 58.8366 7.75516C59.5817 6.99485 59.9542 6.05207 59.9542 4.92681C59.9542 3.80155 59.5817 2.86637 58.8366 2.12126C58.1067 1.37616 57.1867 1.00361 56.0767 1.00361C54.9666 1.00361 54.039 1.37616 53.2939 2.12126ZM54.3203 7.18493V2.50902H56.6469C57.1335 2.50902 57.5288 2.63827 57.833 2.89678C58.1371 3.15529 58.2892 3.48982 58.2892 3.90039C58.2892 4.18931 58.1979 4.44021 58.0154 4.6531C57.833 4.86598 57.5897 5.00284 57.2855 5.06366C57.7721 5.17011 58.0307 5.48944 58.0611 6.02165L58.1067 6.68312C58.1371 6.97204 58.1675 7.13931 58.1979 7.18493H57.1031C57.0727 7.13931 57.0423 6.98725 57.0118 6.72874L56.9662 6.09008C56.9358 5.67951 56.7381 5.47423 56.3732 5.47423H55.4152V7.18493H54.3203ZM55.4152 4.74433H56.4416C56.9282 4.74433 57.1715 4.49343 57.1715 3.99163C57.1715 3.79395 57.1031 3.63428 56.9662 3.51263C56.8294 3.39098 56.6545 3.33016 56.4416 3.33016H55.4152V4.74433Z" fill="black"/>
<path d="M38.0831 17.9509C39.8622 18.4071 41.0787 17.9661 41.7326 16.628L41.9151 16.2174L37.1935 4.85839H40.9343L43.8539 12.2714L46.5682 4.85839H50.1264L45.4505 16.4911C44.7206 18.3463 43.7094 19.6388 42.4169 20.3687C41.1243 21.1138 39.6798 21.2887 38.0831 20.8933V17.9509Z" fill="black"/>
<path d="M32.059 16.8561C30.2951 16.8561 28.8429 16.2706 27.7024 15.0998C26.5619 13.9289 25.9917 12.4463 25.9917 10.652C25.9917 8.84242 26.5619 7.35221 27.7024 6.18133C28.8429 5.01046 30.2875 4.42502 32.0362 4.42502C33.9978 4.42502 35.5184 5.14731 36.598 6.5919C37.6777 8.02128 38.0654 9.74719 37.7613 11.7696H29.55C29.6108 12.4539 29.8769 13.0165 30.3483 13.4575C30.8197 13.8985 31.4051 14.119 32.1046 14.119C32.6672 14.119 33.1766 13.9745 33.6328 13.6856C34.089 13.3815 34.4007 12.9937 34.568 12.5223L37.556 12.9557C37.3279 14.0657 36.7045 14.9933 35.6857 15.7384C34.682 16.4835 33.4732 16.8561 32.059 16.8561ZM29.5728 9.14654H34.3627C34.3627 8.56871 34.1422 8.07451 33.7012 7.66394C33.2603 7.25337 32.7052 7.04809 32.0362 7.04809C31.3823 7.04809 30.8273 7.24577 30.3711 7.64113C29.9301 8.02128 29.664 8.52309 29.5728 9.14654Z" fill="black"/>
<path d="M19.2474 16.7648C17.4531 16.7648 15.9705 16.1946 14.7996 15.0541C13.6439 13.8985 13.0661 12.4311 13.0661 10.6519C13.0661 8.85761 13.6439 7.39021 14.7996 6.24975C15.9705 5.09408 17.4531 4.51624 19.2474 4.51624C21.057 4.51624 22.5396 5.09408 23.6952 6.24975C24.8661 7.39021 25.4516 8.85761 25.4516 10.6519C25.4516 12.4311 24.8661 13.8985 23.6952 15.0541C22.5396 16.1946 21.057 16.7648 19.2474 16.7648ZM17.3314 8.37101C16.8448 8.96406 16.6015 9.72437 16.6015 10.6519C16.6015 11.5795 16.8448 12.3398 17.3314 12.9329C17.8332 13.5107 18.4719 13.7996 19.2474 13.7996C20.0381 13.7996 20.6768 13.5107 21.1634 12.9329C21.6652 12.3398 21.9161 11.5795 21.9161 10.6519C21.9161 9.72437 21.6652 8.96406 21.1634 8.37101C20.6768 7.77797 20.0381 7.48145 19.2474 7.48145C18.4719 7.48145 17.8332 7.77797 17.3314 8.37101Z" fill="black"/>
<path d="M6.32699 16.742C4.65431 16.742 3.29336 16.225 2.24413 15.191C1.1949 14.157 0.670288 12.8112 0.670288 11.1538L4.18292 10.9257C4.18292 11.7164 4.373 12.3322 4.75315 12.7732C5.14851 13.2142 5.68073 13.4347 6.3498 13.4347C7.00367 13.4347 7.52068 13.2218 7.90084 12.796C8.28099 12.3702 8.47107 11.7848 8.47107 11.0397V0.456192H12.1662V11.0397C12.1662 12.7428 11.6264 14.119 10.5467 15.1682C9.46708 16.2174 8.0605 16.742 6.32699 16.742Z" fill="black"/>
</svg>
